<svg version="1.1" xmlns="http://www.w3.org/2000/svg" xmlns:xlink="http://www.w3.org/1999/xlink" width="19" height="18" viewBox="0,0,256,242.51563"><g transform="translate(6.4,6.06289) scale(0.95,0.95)"><g fill="#ff8e8e" fill-rule="none" stroke="none" stroke-width="1" stroke-linecap="butt" stroke-linejoin="none" stroke-miterlimit="10" stroke-dasharray="" stroke-dashoffset="0" font-family="none" font-weight="none" font-size="none" text-anchor="none" style="mix-blend-mode: normal"><path transform="translate(0.54366,-0.00543) scale(13.47368,13.47368)" d="M11.5429,1.05963c0.6472,-0.26819 1.3409,-0.40622 2.0415,-0.40622c0.7006,0 1.3943,0.13803 2.0416,0.40622c0.6472,0.26818 1.2353,0.66125 1.7305,1.15676c0.4954,0.49523 0.8884,1.0832 1.1565,1.73032c0.2682,0.64723 0.4063,1.34096 0.4063,2.04156c0,0.70059 -0.1381,1.39432 -0.4063,2.04155c-0.2681,0.64718 -0.6611,1.23519 -1.1566,1.73044c0,0.00005 -0.0001,0.00009 -0.0001,0.00013l-7.36656,7.36651c-0.14065,0.1407 -0.33142,0.2197 -0.53033,0.2197c-0.19891,0 -0.38968,-0.079 -0.53033,-0.2197l-7.36667,-7.36664c-1.00039,-1.00039 -1.56241,-2.35722 -1.56241,-3.77199c0,-1.41478 0.56202,-2.7716 1.56241,-3.772c1.0004,-1.0004 2.35723,-1.56241 3.772,-1.56241c1.41477,0 2.7716,0.56201 3.772,1.56241l0.353,0.353l0.35288,-0.35288c0.49531,-0.49551 1.08331,-0.88858 1.73061,-1.15676z" id="strokeMainSVG" fill-rule="nonzero" stroke="#ff8e8e" stroke-linejoin="round"></path><g transform="translate(0.54366,-0.00543) scale(13.47368,13.47368)" fill-rule="evenodd" stroke="none" stroke-linejoin="miter"><path d="M11.5429,1.05963c0.6472,-0.26819 1.3409,-0.40622 2.0415,-0.40622c0.7006,0 1.3943,0.13803 2.0416,0.40622c0.6472,0.26818 1.2353,0.66125 1.7305,1.15676c0.4954,0.49523 0.8884,1.0832 1.1565,1.73032c0.2682,0.64723 0.4063,1.34096 0.4063,2.04156c0,0.70059 -0.1381,1.39432 -0.4063,2.04155c-0.2681,0.64718 -0.6611,1.23519 -1.1566,1.73044c0,0.00005 -0.0001,0.00009 -0.0001,0.00013l-7.36656,7.36651c-0.14065,0.1407 -0.33142,0.2197 -0.53033,0.2197c-0.19891,0 -0.38968,-0.079 -0.53033,-0.2197l-7.36667,-7.36664c-1.00039,-1.00039 -1.56241,-2.35722 -1.56241,-3.77199c0,-1.41478 0.56202,-2.7716 1.56241,-3.772c1.0004,-1.0004 2.35723,-1.56241 3.772,-1.56241c1.41477,0 2.7716,0.56201 3.772,1.56241l0.353,0.353l0.35288,-0.35288c0.49531,-0.49551 1.08331,-0.88858 1.73061,-1.15676zM13.5844,2.15341c-0.5035,0 -1.0022,0.09921 -1.4674,0.29197c-0.4652,0.19275 -0.8878,0.47528 -1.2438,0.83143l-0.0001,0.00012l-0.88336,0.88333c-0.14065,0.14066 -0.33142,0.21967 -0.53033,0.21967c-0.19891,0 -0.38968,-0.07901 -0.53033,-0.21967l-0.88333,-0.88333c-0.7191,-0.71909 -1.69439,-1.12307 -2.71134,-1.12307c-1.01695,0 -1.99225,0.40398 -2.71134,1.12307c-0.71909,0.71909 -1.12307,1.69439 -1.12307,2.71134c0,1.01695 0.40398,1.99224 1.12307,2.71133l6.83634,6.8363l6.83629,-6.8363l0.0002,-0.00012c0.3561,-0.35598 0.6386,-0.77864 0.8314,-1.24384c0.1928,-0.4652 0.292,-0.96382 0.292,-1.46737c0,-0.50355 -0.0992,-1.00217 -0.292,-1.46737c-0.1928,-0.4652 -0.4753,-0.88786 -0.8314,-1.24385l-0.0003,-0.00024c-0.356,-0.35615 -0.7786,-0.63868 -1.2438,-0.83143c-0.4652,-0.19276 -0.9638,-0.29197 -1.4674,-0.29197z"></path></g></g></g></svg>